<?xml version="1.0" encoding="UTF-8"?>
<svg width="24px" height="24px" viewBox="0 0 24 24" version="1.1" xmlns="http://www.w3.org/2000/svg">
    <path d="M15.5,5.5c1.1,0,2-0.9,2-2s-0.9-2-2-2s-2,0.9-2,2S14.4,5.5,15.5,5.5z M5,12c-2.8,0-5,2.2-5,5s2.2,5,5,5s5-2.2,5-5 S7.8,12,5,12z M5,20.5c-1.9,0-3.5-1.6-3.5-3.5s1.6-3.5,3.5-3.5s3.5,1.6,3.5,3.5S6.9,20.5,5,20.5z M19,12c-2.8,0-5,2.2-5,5s2.2,5,5,5 s5-2.2,5-5S21.8,12,19,12z M19,20.5c-1.9,0-3.5-1.6-3.5-3.5s1.6-3.5,3.5-3.5s3.5,1.6,3.5,3.5S20.9,20.5,19,20.5z M12,10.5 c0,0,1.2-2.2,1.8-3.4C14.4,5.9,15.7,5,17,5h2v2h-2c-0.6,0-1.1,0.3-1.4,0.8L13,11.5L10,15H8v-2h1.3L12,10.5z" fill="currentColor"/>
</svg>
